<svg width="440.006298828125px" height="122.021240234375px" xmlns="http://www.w3.org/2000/svg" viewBox="29.996850585937494 13.9893798828125 440.006298828125 122.021240234375" style="background: rgba(0, 0, 0, 0);" preserveAspectRatio="xMidYMid"><defs>
  <filter id="editing-scratch" x="-100%" y="-100%" width="300%" height="300%">
    <!-- COLOR -->
    <feFlood flood-color="#ddd" flood-opacity="0.75" result="COLOR-blu"></feFlood>
    <feFlood flood-color="#666" flood-opacity="0.4" result="COLOR-red"></feFlood>
    <!-- COLOR END -->

    <!-- Texture -->
    <feTurbulence baseFrequency=".05" type="fractalNoise" numOctaves="3" seed="0" result="Texture_10"></feTurbulence>
    <feColorMatrix type="matrix" values="0 0 0 0 0,
    0 0 0 0 0,
    0 0 0 0 0,
    0 0 0 -2.1 1.1" in="Texture_10" result="Texture_20"></feColorMatrix>

    <feColorMatrix result="Texture_30" type="matrix" values="0 0 0 0 0,
    0 0 0 0 0,
    0 0 0 0 0,
    0 0 0 -1.7 1.8" in="Texture_10"></feColorMatrix>
    <!-- Texture -->

    <!-- FILL -->
    <feOffset dx="-3" dy="4" in="SourceAlpha" result="FILL_10"></feOffset>
    <feDisplacementMap scale="17" in="FILL_10" in2="Texture_10" result="FILL_20"></feDisplacementMap>
    <feComposite operator="in" in="Texture_30" in2="FILL_20" result="FILL_40"></feComposite>
    <feComposite operator="in" in="COLOR-blu" in2="FILL_40" result="FILL_50"></feComposite>
    <!-- FILL END-->

    <!-- OUTLINE -->
    <feMorphology operator="dilate" radius="3" in="SourceGraphic" result="OUTLINE_10"></feMorphology>
    <feComposite operator="out" in="OUTLINE_10" in2="SourceGraphic" result="OUTLINE_20"></feComposite>
    <feDisplacementMap scale="7" in="OUTLINE_20" in2="Texture_10" result="OUTLINE_30"></feDisplacementMap>
    <feComposite operator="arithmetic" k2="-1" k3="1" in="Texture_20" in2="OUTLINE_30" result="OUTLINE_40"></feComposite>
    <!-- OUTLINE END-->

    <!-- BEVEL OUTLINE -->
    <feConvolveMatrix order="8,8" divisor="1" kernelMatrix="1 0 0 0 0 0 0 0 0 1 0 0 0 0 0 0 0 0 1 0 0 0 0 0 0 0 0 1 0 0 0 0 0 0 0 0 1 0 0 0 0 0 0 0 0 1 0 0 0 0 0 0 0 0 1 0 0 0 0 0 0 0 0 1 " in="SourceGraphic" result="BEVEL_10"></feConvolveMatrix>
    <feMorphology operator="dilate" radius="2" in="BEVEL_10" result="BEVEL_20"></feMorphology>
    <feComposite operator="out" in="BEVEL_20" in2="BEVEL_10" result="BEVEL_30"></feComposite>
    <feDisplacementMap scale="7" in="BEVEL_30" in2="Texture_10" result="BEVEL_40"></feDisplacementMap>
    <feComposite operator="arithmetic" k2="-1" k3="1" in="Texture_20" in2="BEVEL_40" result="BEVEL_50"></feComposite>
    <feOffset dx="-7" dy="-7" in="BEVEL_50" result="BEVEL_60"></feOffset>
    <feComposite operator="out" in="BEVEL_60" in2="OUTLINE_10" result="BEVEL_70"></feComposite>
    <!-- BEVEL OUTLINE END -->

    <!-- BEVEL FILL -->
    <feOffset dx="-9" dy="-9" in="BEVEL_10" result="BEVEL-FILL_10"></feOffset>
    <feComposite operator="out" in="BEVEL-FILL_10" in2="OUTLINE_10" result="BEVEL-FILL_20"></feComposite>
    <feDisplacementMap scale="17" in="BEVEL-FILL_20" in2="Texture_10" result="BEVEL-FILL_30"></feDisplacementMap>
    <feComposite operator="in" in="COLOR-red" in2="BEVEL-FILL_30" result="BEVEL-FILL_50"></feComposite> <!-- -->
    <!-- BEVEL FILL END-->

    <feMerge result="merge2">
     <feMergeNode in="BEVEL-FILL_50"></feMergeNode>
     <feMergeNode in="BEVEL_70"></feMergeNode>
     <feMergeNode in="FILL_50"></feMergeNode>
      <feMergeNode in="OUTLINE_40"></feMergeNode>
    </feMerge>
  </filter>
</defs>
<g filter="url(#editing-scratch)"><g transform="translate(97.01155638694763, 104.46218872070312)"><path d="M33.28-7.10L33.28-7.10L33.28-7.10Q33.28-4.29 36.16-3.46L36.16-3.46L36.16-3.46Q35.46-1.09 32.70 0.19L32.70 0.19L32.70 0.19Q30.40 1.28 27.87 1.28L27.87 1.28L27.87 1.28Q25.34 1.28 24.03 0.61L24.03 0.61L24.03 0.61Q22.72-0.06 22.02-1.15L22.02-1.15L22.02-1.15Q20.86-2.82 20.86-5.95L20.86-5.95L20.86-5.95Q20.86-7.81 21.89-12.93L21.89-12.93L22.78-17.79L22.78-17.79Q23.87-23.36 23.87-25.41L23.87-25.41L23.87-25.41Q23.87-28.99 21.89-28.99L21.89-28.99L21.89-28.99Q19.39-28.99 17.79-25.34L17.79-25.34L17.79-25.34Q17.15-23.94 16.70-21.82L16.70-21.82L12.35 0L-0.51 1.28L8.51-44.80L21.38-46.08L20.86-43.52L20.86-43.52Q19.07-33.66 17.54-30.34L17.54-30.34L17.54-30.34Q21.12-33.92 27.71-33.92L27.71-33.92L27.71-33.92Q34.69-33.92 35.97-29.31L35.97-29.31L35.97-29.31Q36.42-27.84 36.42-26.56L36.42-26.56L36.42-26.56Q36.42-25.28 36.32-24.29L36.32-24.29L36.32-24.29Q36.22-23.30 35.90-21.50L35.90-21.50L35.07-16.90L33.60-9.66L33.60-9.66Q33.28-8.19 33.28-7.10ZM61.70-7.23L61.70-7.23L61.70-7.23Q58.37-3.78 52.29-3.78L52.29-3.78L52.29-3.78Q44.67-3.78 43.07-9.34L43.07-9.34L43.07-9.34Q42.56-11.01 42.56-12.86L42.56-12.86L42.56-12.86Q42.56-14.72 42.94-16.64L42.94-16.64L45.95-32.64L58.94-33.92L55.42-15.30L55.42-15.30Q55.30-14.46 55.10-13.57L55.10-13.57L55.10-13.57Q54.91-12.67 54.91-11.74L54.91-11.74L54.91-11.74Q54.91-10.82 55.23-10.21L55.23-10.21L55.23-10.21Q55.55-9.60 56-9.22L56-9.22L56-9.22Q56.77-8.70 58.14-8.70L58.14-8.70L58.14-8.70Q59.52-8.70 60.70-10.37L60.70-10.37L60.70-10.37Q61.89-12.03 62.46-14.91L62.46-14.91L65.98-32.64L78.59-33.92L73.79-8.77L73.79-8.77Q71.42 3.52 66.56 8.38L66.56 8.38L66.56 8.38Q64.06 10.88 60.83 11.87L60.83 11.87L60.83 11.87Q57.60 12.86 53.44 12.86L53.44 12.86L53.44 12.86Q46.72 12.86 42.88 10.75L42.88 10.75L42.88 10.75Q39.04 8.64 39.04 5.12L39.04 5.12L39.04 5.12Q39.04 2.50 41.02 0.99L41.02 0.99L41.02 0.99Q43.01-0.51 46.08-0.51L46.08-0.51L46.08-0.51Q48.77-0.51 50.82 0.64L50.82 0.64L50.82 0.64Q52.03 1.34 52.61 2.24L52.61 2.24L52.61 2.24Q51.14 3.52 51.14 5.63L51.14 5.63L51.14 5.63Q51.14 8.45 53.70 8.45L53.70 8.45L53.70 8.45Q57.92 8.45 60.35-1.28L60.35-1.28L60.35-1.28Q61.06-4.16 61.70-7.23ZM106.82-10.82L106.82-10.82L106.82-10.82Q108.42-9.73 108.42-7.33L108.42-7.33L108.42-7.33Q108.42-4.93 107.20-3.39L107.20-3.39L107.20-3.39Q105.98-1.86 104-0.83L104-0.83L104-0.83Q99.90 1.28 95.49 1.28L95.49 1.28L95.49 1.28Q91.07 1.28 88.48 0.32L88.48 0.32L88.48 0.32Q85.89-0.64 84.16-2.43L84.16-2.43L84.16-2.43Q80.77-5.82 80.77-12.03L80.77-12.03L80.77-12.03Q80.77-21.70 86.02-27.58L86.02-27.58L86.02-27.58Q91.65-33.92 101.44-33.92L101.44-33.92L101.44-33.92Q107.52-33.92 110.53-31.36L110.53-31.36L110.53-31.36Q112.77-29.44 112.77-26.30L112.77-26.30L112.77-26.30Q112.77-15.04 93.31-15.04L93.31-15.04L93.31-15.04Q93.06-13.38 93.06-11.97L93.06-11.97L93.06-11.97Q93.06-9.02 94.37-7.90L94.37-7.90L94.37-7.90Q95.68-6.78 98.11-6.78L98.11-6.78L98.11-6.78Q100.54-6.78 103.14-7.90L103.14-7.90L103.14-7.90Q105.73-9.02 106.82-10.82ZM93.76-17.79L93.76-17.79L93.76-17.79Q98.30-17.79 100.93-20.61L100.93-20.61L100.93-20.61Q103.55-23.30 103.55-27.58L103.55-27.58L103.55-27.58Q103.55-29.06 103.01-29.86L103.01-29.86L103.01-29.86Q102.46-30.66 101.38-30.66L101.38-30.66L101.38-30.66Q100.29-30.66 99.36-30.24L99.36-30.24L99.36-30.24Q98.43-29.82 97.47-28.42L97.47-28.42L97.47-28.42Q95.10-25.22 93.76-17.79ZM128.90 1.28L128.90 1.28L128.90 1.28Q114.82 1.28 114.82-11.97L114.82-11.97L114.82-11.97Q114.82-21.38 120-27.46L120-27.46L120-27.46Q125.50-33.92 135.04-33.92L135.04-33.92L135.04-33.92Q141.95-33.92 145.47-30.72L145.47-30.72L145.47-30.72Q148.99-27.52 148.99-20.80L148.99-20.80L148.99-20.80Q148.99-10.56 143.49-4.61L143.49-4.61L143.49-4.61Q138.11 1.28 128.90 1.28ZM130.56-26.56L130.56-26.56L130.56-26.56Q129.79-24.83 129.18-22.24L129.18-22.24L129.18-22.24Q128.58-19.65 127.81-15.55L127.81-15.55L127.81-15.55Q127.04-11.46 127.04-6.40L127.04-6.40L127.04-6.40Q127.04-4.74 127.58-3.65L127.58-3.65L127.58-3.65Q128.13-2.56 129.60-2.56L129.60-2.56L129.60-2.56Q131.07-2.56 132-3.26L132-3.26L132-3.26Q132.93-3.97 133.63-5.63L133.63-5.63L133.63-5.63Q134.91-8.58 135.94-14.05L135.94-14.05L135.94-14.05Q136.96-19.52 137.06-21.89L137.06-21.89L137.06-21.89Q137.15-24.26 137.15-26.02L137.15-26.02L137.15-26.02Q137.15-27.78 136.64-28.93L136.64-28.93L136.64-28.93Q136.13-30.08 134.69-30.08L134.69-30.08L134.69-30.08Q133.25-30.08 132.29-29.18L132.29-29.18L132.29-29.18Q131.33-28.29 130.56-26.56ZM179.84 1.28L179.84 1.28L179.84 1.28Q172.10 1.28 172.10-4.74L172.10-4.74L172.10-4.74Q172.16-6.40 172.67-9.22L172.67-9.22L173.82-15.10L173.82-15.10Q175.55-23.42 175.55-25.28L175.55-25.28L175.55-25.28Q175.55-28.99 173.38-28.99L173.38-28.99L173.38-28.99Q169.73-28.99 167.81-19.46L167.81-19.46L164.03 0L151.17 1.28L157.82-32.70L168.32-33.92L167.30-27.65L167.30-27.65Q170.30-33.92 179.52-33.92L179.52-33.92L179.52-33.92Q184-33.92 185.89-32.03L185.89-32.03L185.89-32.03Q187.78-30.14 187.78-25.92L187.78-25.92L187.78-25.92Q187.78-21.95 185.73-12.67L185.73-12.67L185.73-12.67Q184.77-8.51 184.77-6.94L184.77-6.94L184.77-6.94Q184.77-5.38 185.63-4.48L185.63-4.48L185.63-4.48Q186.50-3.58 187.78-3.46L187.78-3.46L187.78-3.46Q187.14-1.28 184.93 0L184.93 0L184.93 0Q182.72 1.28 179.84 1.28ZM192.06-3.07L192.06-3.07L200-44.80L212.99-46.08L211.01-36.29L211.01-36.29Q210.30-33.28 209.41-31.17L209.41-31.17L209.41-31.17Q210.82-32.96 213.89-33.66L213.89-33.66L213.89-33.66Q214.78-33.92 215.87-33.92L215.87-33.92L215.87-33.92Q221.82-33.92 225.09-30.30L225.09-30.30L225.09-30.30Q228.35-26.69 228.35-19.71L228.35-19.71L228.35-19.71Q228.35-10.62 223.17-4.93L223.17-4.93L223.17-4.93Q217.60 1.28 207.49 1.28L207.49 1.28L207.49 1.28Q200.51 1.28 195.26-1.02L195.26-1.02L195.26-1.02Q193.41-1.86 192.06-3.07ZM208.32-22.40L204.93-3.65L204.93-3.65Q206.27-2.50 207.94-2.50L207.94-2.50L207.94-2.50Q209.60-2.50 210.56-3.14L210.56-3.14L210.56-3.14Q211.52-3.78 212.22-5.06L212.22-5.06L212.22-5.06Q214.14-8.51 215.68-19.07L215.68-19.07L215.68-19.07Q216.13-22.08 216.13-25.09L216.13-25.09L216.13-25.09Q216.13-28.10 215.46-29.06L215.46-29.06L215.46-29.06Q214.78-30.02 213.50-30.02L213.50-30.02L213.50-30.02Q209.60-30.02 208.32-22.40L208.32-22.40ZM258.11-10.82L258.11-10.82L258.11-10.82Q259.71-9.73 259.71-7.33L259.71-7.33L259.71-7.33Q259.71-4.93 258.50-3.39L258.50-3.39L258.50-3.39Q257.28-1.86 255.30-0.83L255.30-0.83L255.30-0.83Q251.20 1.28 246.78 1.28L246.78 1.28L246.78 1.28Q242.37 1.28 239.78 0.32L239.78 0.32L239.78 0.32Q237.18-0.64 235.46-2.43L235.46-2.43L235.46-2.43Q232.06-5.82 232.06-12.03L232.06-12.03L232.06-12.03Q232.06-21.70 237.31-27.58L237.31-27.58L237.31-27.58Q242.94-33.92 252.74-33.92L252.74-33.92L252.74-33.92Q258.82-33.92 261.82-31.36L261.82-31.36L261.82-31.36Q264.06-29.44 264.06-26.30L264.06-26.30L264.06-26.30Q264.06-15.04 244.61-15.04L244.61-15.04L244.61-15.04Q244.35-13.38 244.35-11.97L244.35-11.97L244.35-11.97Q244.35-9.02 245.66-7.90L245.66-7.90L245.66-7.90Q246.98-6.78 249.41-6.78L249.41-6.78L249.41-6.78Q251.84-6.78 254.43-7.90L254.43-7.90L254.43-7.90Q257.02-9.02 258.11-10.82ZM245.06-17.79L245.06-17.79L245.06-17.79Q249.60-17.79 252.22-20.61L252.22-20.61L252.22-20.61Q254.85-23.30 254.85-27.58L254.85-27.58L254.85-27.58Q254.85-29.06 254.30-29.86L254.30-29.86L254.30-29.86Q253.76-30.66 252.67-30.66L252.67-30.66L252.67-30.66Q251.58-30.66 250.66-30.24L250.66-30.24L250.66-30.24Q249.73-29.82 248.77-28.42L248.77-28.42L248.77-28.42Q246.40-25.22 245.06-17.79ZM281.54-3.52L281.54-3.52L281.54-3.52Q279.55 1.28 273.22 1.28L273.22 1.28L273.22 1.28Q270.02 1.28 267.97-0.96L267.97-0.96L267.97-0.96Q266.30-2.82 266.30-4.93L266.30-4.93L266.30-4.93Q266.30-9.73 268.54-20.22L268.54-20.22L273.22-44.80L286.21-46.08L280-13.70L280-13.70Q278.91-8.96 278.91-7.30L278.91-7.30L278.91-7.30Q278.91-3.65 281.54-3.52ZM302.27-3.52L302.27-3.52L302.27-3.52Q300.29 1.28 293.95 1.28L293.95 1.28L293.95 1.28Q290.75 1.28 288.70-0.96L288.70-0.96L288.70-0.96Q287.04-2.82 287.04-4.93L287.04-4.93L287.04-4.93Q287.04-9.73 289.28-20.22L289.28-20.22L293.95-44.80L306.94-46.08L300.74-13.70L300.74-13.70Q299.65-8.96 299.65-7.30L299.65-7.30L299.65-7.30Q299.65-3.65 302.27-3.52Z" fill="#000"></path></g></g><style>text {
  font-size: 64px;
  font-family: Arial Black;
  dominant-baseline: central;
  text-anchor: middle;
}</style></svg>